<?xml version="1.0" standalone="no"?>
<!DOCTYPE svg PUBLIC "-//W3C//DTD SVG 20010904//EN"
 "http://www.w3.org/TR/2001/REC-SVG-20010904/DTD/svg10.dtd">
<svg version="1.0" xmlns="http://www.w3.org/2000/svg"
 width="512.000000pt" height="512.000000pt" viewBox="0 0 512.000000 512.000000"
 preserveAspectRatio="xMidYMid meet">

<g transform="translate(0.000000,512.000000) scale(0.100000,-0.100000)"
fill="#000000" stroke="none">
<path d="M1663 5110 c-113 -24 -216 -103 -264 -205 -16 -33 -29 -67 -29 -76 0
-13 -25 -18 -152 -27 -160 -11 -248 -32 -343 -79 -125 -63 -245 -172 -314
-287 -63 -105 -110 -278 -111 -411 0 -27 -4 -55 -8 -61 -4 -7 -34 -17 -67 -24
-129 -26 -245 -110 -298 -216 -87 -175 -100 -540 -27 -776 24 -78 89 -171 147
-211 52 -36 150 -76 185 -77 26 0 26 -2 32 -72 3 -40 8 -145 11 -233 9 -246
33 -539 50 -613 34 -145 129 -298 255 -405 67 -57 211 -130 300 -151 90 -21
665 -56 926 -56 61 0 126 -3 143 -6 28 -6 31 -10 31 -44 l0 -38 -72 -6 c-40
-3 -175 -12 -301 -21 -135 -9 -255 -23 -295 -34 -194 -51 -351 -179 -437 -356
-50 -104 -63 -170 -76 -373 -13 -201 -9 -225 37 -242 35 -14 3113 -14 3148 0
46 17 50 41 37 242 -6 101 -17 208 -25 238 -23 88 -81 116 -133 64 -22 -22
-25 -31 -19 -67 18 -115 25 -179 27 -252 l2 -80 -1009 -3 c-555 -2 -1213 0
-1463 4 l-454 6 6 122 c4 66 14 148 22 180 48 183 205 334 390 375 45 10 292
30 541 45 l91 6 23 -56 c26 -64 111 -161 173 -197 107 -63 260 -74 382 -27 81
31 191 140 225 223 l24 57 75 -5 c42 -3 150 -10 241 -15 333 -21 397 -38 529
-135 41 -30 82 -55 93 -55 30 0 68 45 68 81 0 39 -53 92 -150 149 -122 72
-207 90 -525 110 -93 6 -203 13 -242 16 l-73 6 0 38 c0 38 1 39 43 44 23 3
146 8 272 11 329 8 709 33 785 51 146 35 294 128 399 249 62 72 134 214 156
307 17 74 41 367 50 613 3 88 8 193 11 233 6 70 6 72 32 72 35 1 133 41 185
77 58 40 123 133 147 211 67 216 62 542 -11 739 -46 122 -161 219 -297 249
-42 9 -80 22 -84 28 -4 6 -8 34 -8 61 -1 132 -47 303 -111 413 -19 31 -73 96
-120 143 -73 73 -100 93 -190 137 -120 59 -199 77 -376 88 -104 5 -123 9 -123
23 0 40 -59 138 -113 188 -75 68 -147 96 -247 96 -144 0 -266 -77 -331 -209
l-32 -64 -52 0 -52 0 -32 64 c-65 132 -187 209 -331 209 -144 0 -266 -77 -331
-209 l-32 -64 -52 0 -52 0 -32 64 c-73 149 -245 238 -398 206z m1657 -430
c426 -16 637 -29 720 -46 211 -44 384 -205 448 -415 36 -116 72 -745 72 -1239
0 -446 -35 -1099 -66 -1216 -52 -200 -229 -377 -429 -427 -181 -46 -1372 -79
-2065 -58 -451 14 -857 37 -925 52 -208 46 -396 228 -449 434 -38 148 -71 903
-62 1410 10 564 36 940 72 1056 59 187 212 336 404 394 184 55 1446 85 2280
55z"/>
<path d="M1960 4479 c-329 -10 -653 -28 -729 -40 -168 -27 -305 -152 -345
-314 -21 -86 -45 -378 -55 -680 -11 -327 3 -804 25 -846 27 -54 106 -51 128 4
10 24 11 63 4 162 -22 307 5 1126 43 1312 18 93 86 169 179 202 104 37 1154
67 1778 51 588 -14 884 -33 944 -59 57 -24 115 -81 140 -138 54 -122 88 -943
58 -1408 -20 -309 -37 -439 -64 -493 -31 -61 -94 -117 -155 -136 -88 -28 -754
-56 -1351 -56 -583 0 -1247 27 -1345 55 -95 27 -174 121 -190 227 -9 59 -40
91 -85 86 -22 -2 -40 -12 -53 -30 -19 -26 -20 -32 -8 -95 30 -161 148 -293
301 -337 109 -31 733 -56 1380 -56 660 0 1269 25 1380 56 131 38 241 142 286
274 45 130 79 786 64 1225 -11 305 -35 595 -56 680 -34 138 -136 249 -272 297
-141 49 -1250 81 -2002 57z"/>
<path d="M1610 4150 c-113 -24 -226 -116 -278 -227 -36 -79 -38 -209 -3 -295
31 -81 106 -160 189 -200 63 -31 73 -33 172 -33 95 0 110 3 160 28 76 39 153
117 187 191 24 53 28 73 28 156 0 83 -4 103 -27 153 -50 107 -123 175 -226
211 -56 20 -147 27 -202 16z m176 -169 c22 -10 56 -37 75 -60 63 -72 75 -161
35 -246 -56 -122 -189 -169 -312 -111 -177 83 -170 343 11 422 44 19 143 17
191 -5z"/>
<path d="M3364 4150 c-194 -41 -323 -206 -312 -401 8 -139 85 -256 213 -322
56 -30 67 -32 165 -32 99 0 109 2 172 33 197 97 273 332 170 525 -36 67 -129
151 -195 176 -65 24 -157 33 -213 21z m198 -186 c112 -78 137 -217 60 -329
-72 -105 -236 -126 -336 -43 -100 83 -113 230 -27 329 51 60 100 80 188 77 61
-3 78 -8 115 -34z"/>
<path d="M2145 3355 c-52 -52 -11 -218 82 -333 163 -201 503 -201 666 0 64 79
107 192 107 279 0 39 -39 79 -78 79 -43 0 -65 -32 -78 -111 -27 -160 -151
-259 -309 -246 -140 11 -242 112 -261 257 -11 94 -74 131 -129 75z"/>
<path d="M1193 3216 c-35 -16 -49 -49 -39 -92 12 -46 58 -56 244 -52 l164 3
24 28 c30 35 30 59 0 94 l-24 28 -169 2 c-128 2 -176 0 -200 -11z"/>
<path d="M3564 3220 c-26 -10 -54 -48 -54 -72 0 -9 11 -30 24 -45 l24 -28 152
-3 c84 -2 167 -1 186 3 86 16 102 116 23 144 -38 13 -324 14 -355 1z"/>
<path d="M1171 2944 c-28 -35 -26 -69 4 -99 24 -25 27 -25 194 -25 105 0 180
4 195 11 51 23 55 103 7 128 -12 7 -92 11 -200 11 l-180 0 -20 -26z"/>
<path d="M3547 2959 c-46 -27 -41 -105 9 -128 15 -7 90 -11 195 -11 167 0 170
0 194 25 30 30 32 64 4 99 l-20 26 -182 0 c-109 0 -189 -5 -200 -11z"/>
<path d="M1507 722 c-18 -20 -177 -427 -177 -454 0 -30 12 -49 38 -59 34 -13
68 11 88 61 l16 40 83 0 82 0 18 -46 c22 -58 56 -74 94 -46 15 11 27 27 29 36
5 21 -154 445 -175 469 -21 22 -75 22 -96 -1z m66 -247 l16 -45 -35 0 c-19 0
-34 2 -34 5 0 8 32 85 35 85 2 0 10 -20 18 -45z"/>
<path d="M1886 718 c-13 -19 -16 -60 -16 -249 l0 -228 27 -20 c28 -23 59 -20
81 7 9 12 12 77 12 247 0 212 -2 233 -18 248 -26 24 -68 21 -86 -5z"/>
</g>
</svg>
