<?xml version="1.0" standalone="no"?>
<!DOCTYPE svg PUBLIC "-//W3C//DTD SVG 20010904//EN"
 "http://www.w3.org/TR/2001/REC-SVG-20010904/DTD/svg10.dtd">
<svg version="1.0" xmlns="http://www.w3.org/2000/svg"
 width="512.000000pt" height="512.000000pt" viewBox="0 0 512.000000 512.000000"
 preserveAspectRatio="xMidYMid meet">

<g transform="translate(0.000000,512.000000) scale(0.100000,-0.100000)"
fill="#000000" stroke="none">
<path d="M2493 4900 c-130 -19 -258 -115 -314 -235 -102 -217 -13 -467 201
-567 l70 -33 0 -217 0 -217 -687 -3 -688 -3 -66 -26 c-174 -67 -277 -167 -338
-329 -23 -60 -25 -81 -29 -282 l-4 -218 -189 0 c-165 0 -195 -3 -243 -20 -72
-27 -139 -88 -173 -158 l-28 -57 0 -560 0 -560 24 -53 c29 -65 113 -143 178
-167 37 -14 91 -19 241 -23 l192 -4 0 -177 c0 -210 9 -271 57 -371 69 -144
221 -261 377 -289 83 -15 2889 -15 2972 0 156 28 308 145 377 289 48 100 57
161 57 371 l0 177 193 4 c149 4 203 9 239 22 66 24 141 95 175 164 l28 57 0
560 0 560 -28 57 c-34 70 -101 131 -173 158 -48 17 -78 20 -244 20 l-190 0 0
188 c0 215 -15 301 -72 401 -61 108 -180 202 -315 248 -42 15 -128 17 -735 20
l-688 4 0 217 0 217 70 33 c167 78 266 258 240 439 -33 237 -248 397 -487 363z
m1571 -1511 c70 -26 139 -92 174 -167 l27 -57 0 -1190 0 -1190 -26 -55 c-37
-80 -81 -125 -157 -162 l-67 -33 -1455 0 -1455 0 -67 33 c-76 37 -120 82 -157
162 l-26 55 0 1190 c0 1123 1 1192 18 1230 42 94 108 158 195 190 31 11 284
14 1489 14 1443 1 1453 1 1507 -20z m-3424 -1260 l0 -431 -187 4 c-125 2 -196
8 -211 16 l-22 13 0 378 c0 371 0 379 21 405 12 15 31 32 43 36 11 5 96 9 189
9 l167 1 0 -431z m4231 393 l29 -32 0 -380 0 -379 -22 -13 c-15 -8 -86 -14
-210 -16 l-188 -4 0 432 0 431 181 -3 181 -3 29 -33z"/>
<path d="M1824 2760 c-50 -16 -125 -71 -161 -118 -154 -204 -1 -506 257 -506
121 0 242 78 291 186 35 80 34 193 -4 270 -31 62 -84 116 -149 149 -48 25
-180 36 -234 19z m134 -211 c40 -14 62 -49 62 -99 0 -33 -6 -48 -29 -71 -65
-64 -171 -20 -171 71 0 51 12 75 48 94 33 18 50 19 90 5z"/>
<path d="M3104 2760 c-50 -16 -125 -71 -161 -118 -154 -204 -1 -506 257 -506
121 0 242 78 291 186 35 80 34 193 -4 270 -31 62 -84 116 -149 149 -48 25
-180 36 -234 19z m134 -211 c40 -14 62 -49 62 -99 0 -33 -6 -48 -29 -71 -65
-64 -171 -20 -171 71 0 51 12 75 48 94 33 18 50 19 90 5z"/>
<path d="M1957 1486 c-51 -48 -46 -124 11 -162 135 -91 465 -165 662 -149 210
18 467 94 541 161 42 38 32 127 -17 159 -35 23 -84 18 -158 -15 -37 -17 -111
-43 -164 -58 -88 -24 -113 -27 -272 -27 -159 0 -184 3 -272 27 -53 15 -127 41
-164 58 -82 37 -131 39 -167 6z"/>
</g>
</svg>
